<?xml version="1.0" encoding="UTF-8"?>
<svg width="892px" height="344px" viewBox="0 0 892 344" version="1.1" xmlns="http://www.w3.org/2000/svg" xmlns:xlink="http://www.w3.org/1999/xlink">
    <title>Group</title>
    <g id="Page-1" stroke="none" stroke-width="1" fill="none" fill-rule="evenodd">
        <g id="Group" transform="translate(0.000000, 5.000000)">
            <g id="Group-3" transform="translate(626.000000, 0.000000)" stroke="#EDC814" stroke-width="8.4">
                <ellipse id="Oval" cx="81.6752688" cy="81" rx="53.288172" ry="52.9354839"></ellipse>
                <line x1="81.5" y1="7.11628513e-16" x2="81.6653447" y2="26.1285155" id="Line-Copy-2" stroke-linecap="round"></line>
                <line x1="33.4360215" y1="20.166129" x2="33.5166667" y2="46.3758065" id="Line-Copy-7" stroke-linecap="round" transform="translate(33.476344, 33.270968) rotate(-45.000000) translate(-33.476344, -33.270968) "></line>
                <line x1="33.5166667" y1="115.624194" x2="33.4360215" y2="141.833871" id="Line-Copy-8" stroke-linecap="round" transform="translate(33.476344, 128.729032) rotate(45.000000) translate(-33.476344, -128.729032) "></line>
                <line x1="129.483333" y1="115.624194" x2="129.563978" y2="141.833871" id="Line-Copy-9" stroke-linecap="round" transform="translate(129.523656, 128.729032) rotate(-45.000000) translate(-129.523656, -128.729032) "></line>
                <line x1="129.563978" y1="20.166129" x2="129.483333" y2="46.3758065" id="Line-Copy-10" stroke-linecap="round" transform="translate(129.523656, 33.270968) rotate(45.000000) translate(-129.523656, -33.270968) "></line>
                <line x1="13.1451613" y1="67.8548387" x2="13.1451613" y2="94.1451613" id="Line-Copy-11" stroke-linecap="round" transform="translate(13.145161, 81.000000) rotate(-90.000000) translate(-13.145161, -81.000000) "></line>
                <line x1="149.854839" y1="67.8548387" x2="149.854839" y2="94.1451613" id="Line-Copy-12" stroke-linecap="round" transform="translate(149.854839, 81.000000) rotate(-90.000000) translate(-149.854839, -81.000000) "></line>
                <line x1="81.5" y1="135.870968" x2="81.5" y2="162" id="Line-Copy-13" stroke-linecap="round"></line>
            </g>
            <text id="Cristo" font-family="SnellRoundhand, Snell Roundhand" font-size="150" font-weight="normal" fill="#FFFFFF">
                <tspan x="36.225" y="222">Cristo</tspan>
            </text>
            <text id=".com" font-family="SnellRoundhand, Snell Roundhand" font-size="150" font-weight="normal" fill="#CD3838">
                <tspan x="557.95" y="290">.com</tspan>
            </text>
            <text id="Rey-Copy" font-family="SnellRoundhand, Snell Roundhand" font-size="150" font-weight="normal" fill="#EDC814">
                <tspan x="375.05" y="222">Rey</tspan>
            </text>
        </g>
    </g>
</svg>